<?xml version="1.0" standalone="no"?><!DOCTYPE svg PUBLIC "-//W3C//DTD SVG 1.1//EN" "http://www.w3.org/Graphics/SVG/1.1/DTD/svg11.dtd"><svg t="1629347855454" class="icon" viewBox="0 0 1024 1024" version="1.1" xmlns="http://www.w3.org/2000/svg" p-id="3931" xmlns:xlink="http://www.w3.org/1999/xlink" width="200" height="200"><defs><style type="text/css"></style></defs><path d="M309.9 523.7c-110.8-35-186.3 0-186.3 0v174.4c0 114.2 84.6 206.8 189 206.8h397.1c104.4 0 189-92.6 189-206.8V523.7s-130.3-26.7-223 0c-150.8 43.5-218.1 46.7-365.8 0z" fill="#F4A638" p-id="3932"></path><path d="M211.4 722.4c-6.5 0-12.7-2.6-17.2-7.1-4.6-4.6-7.1-10.8-7.1-17.2V588.7c0-13.4 10.9-24.4 24.4-24.4 13.4 0 24.4 10.9 24.4 24.4v109.4c0 6.5-2.6 12.7-7.1 17.2-4.7 4.6-10.9 7.1-17.4 7.1z m0 0M237.1 832.3c-9.3 0-17.7-5.2-21.8-13.5-2.2-4.4-3.8-6.9-5.3-9.4-4.3-6.9-7.3-12.3-10.8-25.6-1.6-6.3-0.7-12.9 2.6-18.5s8.6-9.6 14.9-11.2c6.2-1.6 12.9-0.7 18.5 2.6s9.6 8.6 11.2 14.9c1.8 7 2.5 8.1 4.9 12.1 2.8 4.4 5.3 8.9 7.6 13.5 3.8 7.5 3.3 16.5-1.1 23.7-4.4 7-12.2 11.4-20.7 11.4z m0 0" fill="#FFFFFF" p-id="3933"></path><path d="M709.8 929.5H312.6C194.8 929.5 99 833.7 99 715.9V425.3C99 368.9 144.9 323 201.3 323c32.5 0 61.2-21.9 69.8-53.2l18.7-68c3.6-13.1 17.1-20.8 30.3-17.2 13.1 3.6 20.8 17.2 17.2 30.3l-18.7 68c-14.5 52.6-62.7 89.3-117.3 89.3-29.3 0-53.1 23.8-53.1 53.1v290.6c0 90.6 73.7 164.4 164.4 164.4h397.1c90.6 0 164.4-73.7 164.4-164.4V425.3c0-29.3-23.8-53.1-53.1-53.1-54.6 0-102.8-36.7-117.3-89.3l-18.7-68c-3.6-13.1 4.1-26.7 17.2-30.3 13.1-3.6 26.6 4.1 30.3 17.2l18.7 68c8.6 31.3 37.4 53.2 69.8 53.2 56.4 0 102.3 45.9 102.3 102.3v290.6c0 117.8-95.8 213.6-213.5 213.6z" fill="#55422D" p-id="3934"></path><path d="M741.3 233H281.1c-13.6 0-24.6-11-24.6-24.6 0-13.6 11-24.6 24.6-24.6h460.2c13.6 0 24.6 11 24.6 24.6 0 13.6-11 24.6-24.6 24.6z" fill="#55422D" p-id="3935"></path><path d="M741.3 190.3H281.1c-13.6 0-24.6-11-24.6-24.6 0-13.6 11-24.6 24.6-24.6h460.2c13.6 0 24.6 11 24.6 24.6 0 13.6-11 24.6-24.6 24.6z" fill="#55422D" p-id="3936"></path><path d="M741.3 147.6H281.1c-13.6 0-24.6-11-24.6-24.6s11-24.6 24.6-24.6h460.2c13.6 0 24.6 11 24.6 24.6s-11 24.6-24.6 24.6z" fill="#55422D" p-id="3937"></path></svg>